<!--?xml version="1.0" standalone="no"?-->
              <svg id="sw-js-blob-svg" viewBox="0 0 100 100" xmlns="http://www.w3.org/2000/svg" version="1.1">
                    <defs> 
                        <linearGradient id="sw-gradient" x1="0" x2="1" y1="1" y2="0">
                            <stop id="stop1" stop-color="rgba(150, 86, 161, 1)" offset="0%"></stop>
                            <stop id="stop2" stop-color="rgba(194, 176, 201, 1)" offset="100%"></stop>
                        </linearGradient>
                    </defs>
                <path fill="url(#sw-gradient)" d="M19.3,-33.8C26.1,-29.4,33.6,-26.6,37.1,-21.2C40.7,-15.8,40.2,-7.9,40.2,0C40.1,7.9,40.5,15.7,37.8,22.6C35.1,29.4,29.5,35.3,22.7,38.6C15.9,41.8,7.9,42.4,1.1,40.6C-5.8,38.7,-11.6,34.5,-17.8,30.9C-24,27.2,-30.5,24.3,-33.4,19.3C-36.3,14.2,-35.6,7.1,-35.1,0.3C-34.6,-6.5,-34.2,-13,-31.7,-18.7C-29.1,-24.4,-24.5,-29.4,-18.8,-34.4C-13.2,-39.4,-6.6,-44.6,-0.2,-44.2C6.2,-43.9,12.4,-38.1,19.3,-33.8Z" width="100%" height="100%" transform="translate(50 50)" stroke-width="0" style="transition: all 0.3s ease 0s;" stroke="url(#sw-gradient)"></path>
              </svg>